# xmcd
#
# Track frame offsets: 
#        151
#        14213
#        29800
#        39422
#        50070
#        63413
#        76128
#        88515
#        101094
#        115115
#        131877
#        144828
#        163720
#        174841
#        190043
#        203917
#
# Disc length: 2894 seconds
#
# Revision: 1
# Processed by: cddbd v1.5.2PL0 Copyright (c) Steve Scherf et al.
# Submitted via: ExactAudioCopy v0.99pb4
#
DISCID=dc0b4c10
DTITLE=Don Williams - Don Williams Audiophile Collection
DYEAR=1900
DGENRE=Country
TTITLE0=I'm just a country boy
TTITLE1=Till the rivers all run dry
TTITLE2=My rifle, my pony and me
TTITLE3=Turn out the lights
TTITLE4=Where are you
TTITLE5=You're my best friend
TTITLE6=Some broken hearts never mend
TTITLE7=She never knew me
TTITLE8=Crying in the rain
TTITLE9=Fever
TTITLE10=I'm getting good at missing you
TTITLE11=Good ole boy like me
TTITLE12=It must be love
TTITLE13=All I'm missing you
TTITLE14=Pretend
TTITLE15=Goodbye isn't really good at all
EXTD=
EXTT0=
EXTT1=
EXTT2=
EXTT3=
EXTT4=
EXTT5=
EXTT6=
EXTT7=
EXTT8=
EXTT9=
EXTT10=
EXTT11=
EXTT12=
EXTT13=
EXTT14=
EXTT15=
PLAYORDER=
